# xmcd
#
# Track frame offsets: 
#        150
#        11120
#        20995
#        32586
#        42774
#        52749
#        64317
#        73394
#        83042
#        92938
#        102442
#        113508
#        123134
#        131490
#        140554
#        149955
#        160343
#        170018
#        179642
#        190322
#        200879
#        210503
#        223234
#        234886
#        246996
#        257737
#        268088
#        277849
#        286280
#
# Disc length: 3936 seconds
#
# Revision: 0
# Processed by: cddbd v1.5.2PL0 Copyright (c) Steve Scherf et al.
# Submitted via: ExactAudioCopy v1.0b3
#
DISCID=c90f5e1d
DTITLE=Various Artist - The Ebb Records Story # 2 [1957-1959]
DYEAR=1900
DGENRE=Soul
TTITLE0=Tony Harris - Chicken, Baby, Chicken
TTITLE1=Professor Longhair - No Buts, No Maybes
TTITLE2=Floyd Dixon - What Is Life Without A Home
TTITLE3=Earl Nelson - Come On
TTITLE4=Ted Taylor - Keep On Walking On
TTITLE5=Ted Taylor - Days Are Dark
TTITLE6=Ted Taylor - Very Truly Yours
TTITLE7=Ted Taylor - If I Don't See You Again
TTITLE8=Tony Harris - When I Get You Back
TTITLE9=Tommy Lampkin - The Weather's Stormy
TTITLE10=Riff Ruffin - True Confession
TTITLE11=Ray Agee - When The Deal Goes Down
TTITLE12=Professor Longhair - Baby Let Me Hold Your Hand
TTITLE13=Professor Longhair - Misery
TTITLE14=Tony Allen - Come Back
TTITLE15=Ray Agee and Elly Johnson - My Silent Partner
TTITLE16=Ray Agee and Elly Johnson - True Lips
TTITLE17=Tony Allen - Don't You Know [Take 5]
TTITLE18=Kip Tyler - She's My Witch
TTITLE19=Jerry Hawkins - Cha Cha Cha [Take 12]
TTITLE20=Professor Longhair - Looka, No Hair
TTITLE21=Jerry Hawkins - Cha Cha Chu
TTITLE22=Smokey Hogg - Good Mornin' Baby
TTITLE23=J.J. Jones - Harlem Nocturne
TTITLE24=J.J. Jones - Darkness
TTITLE25=Riff Ruffin - If You Please
TTITLE26=Dolly Cooper - Time Brings About A Change
TTITLE27=Eddie Daniels - I Wanna Know
TTITLE28=Tony Harris - You Fascinate Me
EXTD=
EXTT0=
EXTT1=
EXTT2=
EXTT3=
EXTT4=
EXTT5=
EXTT6=
EXTT7=
EXTT8=
EXTT9=
EXTT10=
EXTT11=
EXTT12=
EXTT13=
EXTT14=
EXTT15=
EXTT16=
EXTT17=
EXTT18=
EXTT19=
EXTT20=
EXTT21=
EXTT22=
EXTT23=
EXTT24=
EXTT25=
EXTT26=
EXTT27=
EXTT28=
PLAYORDER=
